<mxfile host="drawio-plugin" modified="2023-11-07T14:34:22.547Z" agent="5.0 (Windows NT 6.2; Win64; x64) AppleWebKit/537.36 (KHTML, like Gecko) Chrome/97.0.4692.45 Safari/537.36" etag="hxSUZwTFTKtMr2Vz6-X-" version="20.5.3" type="embed"><diagram name="arch" id="6Qx8MMCbXSDI1U13eimb"><mxGraphModel dx="3334" dy="1335" grid="1" gridSize="10" guides="1" tooltips="1" connect="1" arrows="1" fold="1" page="1" pageScale="1" pageWidth="827" pageHeight="1169" math="0" shadow="0"><root><mxCell id="0"/><mxCell id="1" parent="0"/><mxCell id="89" value="" style="rounded=0;whiteSpace=wrap;html=1;labelBackgroundColor=none;fontSize=22;fontColor=#000000;" vertex="1" parent="1"><mxGeometry x="-30" y="45" width="1550" height="1080" as="geometry"/></mxCell><mxCell id="90" value="" style="rounded=0;whiteSpace=wrap;html=1;labelBackgroundColor=none;fontSize=18;fontColor=#000000;fillColor=#CCFFE6;" vertex="1" parent="1"><mxGeometry y="150" width="1050" height="960" as="geometry"/></mxCell><mxCell id="91" value="" style="rounded=1;whiteSpace=wrap;html=1;arcSize=3;movable=1;resizable=1;rotatable=1;deletable=1;editable=1;connectable=1;container=0;labelBackgroundColor=none;fontSize=18;fontColor=#000000;" vertex="1" parent="1"><mxGeometry x="9" y="321.53333333333336" width="1028.3048780487804" height="772.2666666666668" as="geometry"/></mxCell><mxCell id="92" value="&lt;font style=&quot;font-size: 18px;&quot;&gt;database connector&lt;/font&gt;" style="rounded=1;whiteSpace=wrap;html=1;fillColor=#00CC66;fontColor=#000000;strokeColor=#006EAF;movable=1;resizable=1;rotatable=1;deletable=1;editable=1;connectable=1;container=0;labelBackgroundColor=none;fontSize=18;" vertex="1" parent="1"><mxGeometry x="745.35" y="345" width="82.36" height="480" as="geometry"/></mxCell><mxCell id="93" style="edgeStyle=orthogonalEdgeStyle;rounded=0;orthogonalLoop=1;jettySize=auto;html=1;exitX=0.5;exitY=1;exitDx=0;exitDy=0;entryX=0.352;entryY=-0.004;entryDx=0;entryDy=0;entryPerimeter=0;labelBackgroundColor=none;fontSize=18;fontColor=#000000;" edge="1" parent="1" source="95" target="125"><mxGeometry relative="1" as="geometry"/></mxCell><mxCell id="94" style="edgeStyle=orthogonalEdgeStyle;rounded=0;orthogonalLoop=1;jettySize=auto;html=1;exitX=1;exitY=0.5;exitDx=0;exitDy=0;entryX=0.056;entryY=0.857;entryDx=0;entryDy=0;entryPerimeter=0;labelBackgroundColor=none;fontSize=18;fontColor=#000000;" edge="1" parent="1" source="95" target="92"><mxGeometry relative="1" as="geometry"/></mxCell><mxCell id="95" value="" style="rounded=1;whiteSpace=wrap;html=1;fillColor=#D4E1F5;fontColor=#000000;strokeColor=#006EAF;movable=1;resizable=1;rotatable=1;deletable=1;editable=1;connectable=1;container=0;labelBackgroundColor=none;fontSize=18;" vertex="1" parent="1"><mxGeometry x="29.28" y="683.53" width="689.72" height="144.8" as="geometry"/></mxCell><mxCell id="96" value="" style="rounded=1;whiteSpace=wrap;html=1;fillColor=#1ba1e2;fontColor=#000000;strokeColor=#006EAF;movable=1;resizable=1;rotatable=1;deletable=1;editable=1;connectable=1;container=0;labelBackgroundColor=none;fontSize=18;" vertex="1" parent="1"><mxGeometry x="31.127301619698805" y="936.9333333333334" width="981.5916857405275" height="144.8" as="geometry"/></mxCell><mxCell id="97" style="edgeStyle=orthogonalEdgeStyle;rounded=0;orthogonalLoop=1;jettySize=auto;html=1;exitX=0.5;exitY=1;exitDx=0;exitDy=0;entryX=0.5;entryY=0;entryDx=0;entryDy=0;labelBackgroundColor=none;fontSize=18;fontColor=#000000;" edge="1" parent="1" source="99" target="95"><mxGeometry relative="1" as="geometry"/></mxCell><mxCell id="98" style="edgeStyle=orthogonalEdgeStyle;rounded=0;orthogonalLoop=1;jettySize=auto;html=1;exitX=1;exitY=0.5;exitDx=0;exitDy=0;entryX=0.056;entryY=0.429;entryDx=0;entryDy=0;entryPerimeter=0;labelBackgroundColor=none;fontSize=18;fontColor=#000000;" edge="1" parent="1" source="99" target="92"><mxGeometry relative="1" as="geometry"/></mxCell><mxCell id="99" value="" style="rounded=1;whiteSpace=wrap;html=1;fillColor=#FFE6CC;fontColor=#000000;strokeColor=#006EAF;movable=1;resizable=1;rotatable=1;deletable=1;editable=1;connectable=1;container=0;labelBackgroundColor=none;fontSize=18;" vertex="1" parent="1"><mxGeometry x="29" y="448.23" width="685.62" height="205.13" as="geometry"/></mxCell><mxCell id="100" value="container" style="rounded=1;whiteSpace=wrap;html=1;fillColor=#dae8fc;strokeColor=#6c8ebf;movable=1;resizable=1;rotatable=1;deletable=1;editable=1;connectable=1;container=0;labelBackgroundColor=none;fontSize=18;fontColor=#000000;" vertex="1" parent="1"><mxGeometry x="164.50575860510548" y="985.2" width="86.05061740993979" height="72.4" as="geometry"/></mxCell><mxCell id="101" value="container" style="rounded=1;whiteSpace=wrap;html=1;fillColor=#dae8fc;strokeColor=#6c8ebf;movable=1;resizable=1;rotatable=1;deletable=1;editable=1;connectable=1;container=0;labelBackgroundColor=none;fontSize=18;fontColor=#000000;" vertex="1" parent="1"><mxGeometry x="290.50844838394585" y="985.2" width="86.05061740993979" height="72.4" as="geometry"/></mxCell><mxCell id="102" value="container" style="rounded=1;whiteSpace=wrap;html=1;fillColor=#dae8fc;strokeColor=#6c8ebf;movable=1;resizable=1;rotatable=1;deletable=1;editable=1;connectable=1;container=0;labelBackgroundColor=none;fontSize=18;fontColor=#000000;" vertex="1" parent="1"><mxGeometry x="419.5843744988556" y="985.2" width="86.05061740993979" height="72.4" as="geometry"/></mxCell><mxCell id="103" value="action" style="rounded=1;whiteSpace=wrap;html=1;fillColor=#66B2FF;strokeColor=#6c8ebf;movable=1;resizable=1;rotatable=1;deletable=1;editable=1;connectable=1;container=0;labelBackgroundColor=none;fontSize=18;fontColor=#000000;" vertex="1" parent="1"><mxGeometry x="82.75575860510548" y="731.8000000000001" width="86.05061740993979" height="72.4" as="geometry"/></mxCell><mxCell id="104" value="action" style="rounded=1;whiteSpace=wrap;html=1;fillColor=#66B2FF;strokeColor=#6c8ebf;movable=1;resizable=1;rotatable=1;deletable=1;editable=1;connectable=1;container=0;labelBackgroundColor=none;fontSize=18;fontColor=#000000;" vertex="1" parent="1"><mxGeometry x="179.9991538495182" y="731.8000000000001" width="86.05061740993979" height="72.4" as="geometry"/></mxCell><mxCell id="105" value="action" style="rounded=1;whiteSpace=wrap;html=1;fillColor=#66B2FF;strokeColor=#6c8ebf;movable=1;resizable=1;rotatable=1;deletable=1;editable=1;connectable=1;container=0;labelBackgroundColor=none;fontSize=18;fontColor=#000000;" vertex="1" parent="1"><mxGeometry x="280.00437449885555" y="731.8000000000001" width="86.05061740993979" height="72.4" as="geometry"/></mxCell><mxCell id="106" value="&lt;font style=&quot;font-size: 18px;&quot;&gt;workflow&lt;/font&gt;" style="rounded=1;whiteSpace=wrap;html=1;fillColor=#dae8fc;strokeColor=#6c8ebf;movable=1;resizable=1;rotatable=1;deletable=1;editable=1;connectable=1;container=0;labelBackgroundColor=none;fontSize=18;fontColor=#000000;" vertex="1" parent="1"><mxGeometry x="49.56671963611447" y="526.6666666666667" width="295.0306882626507" height="108.60000000000001" as="geometry"/></mxCell><mxCell id="107" value="container" style="rounded=1;whiteSpace=wrap;html=1;fillColor=#fff2cc;strokeColor=#d6b656;movable=1;resizable=1;rotatable=1;deletable=1;editable=1;connectable=1;container=0;labelBackgroundColor=none;fontSize=18;fontColor=#000000;" vertex="1" parent="1"><mxGeometry x="603.9785546630123" y="985.2" width="86.05061740993979" height="72.4" as="geometry"/></mxCell><mxCell id="108" value="container" style="rounded=1;whiteSpace=wrap;html=1;fillColor=#fff2cc;strokeColor=#d6b656;movable=1;resizable=1;rotatable=1;deletable=1;editable=1;connectable=1;container=0;labelBackgroundColor=none;fontSize=18;fontColor=#000000;" vertex="1" parent="1"><mxGeometry x="729.9812444418526" y="985.2" width="86.05061740993979" height="72.4" as="geometry"/></mxCell><mxCell id="109" value="container" style="rounded=1;whiteSpace=wrap;html=1;fillColor=#fff2cc;strokeColor=#d6b656;movable=1;resizable=1;rotatable=1;deletable=1;editable=1;connectable=1;container=0;labelBackgroundColor=none;fontSize=18;fontColor=#000000;" vertex="1" parent="1"><mxGeometry x="852.9106978846238" y="985.2" width="86.05061740993979" height="72.4" as="geometry"/></mxCell><mxCell id="110" value="action" style="rounded=1;whiteSpace=wrap;html=1;fillColor=#fff2cc;strokeColor=#d6b656;movable=1;resizable=1;rotatable=1;deletable=1;editable=1;connectable=1;container=0;labelBackgroundColor=none;fontSize=18;fontColor=#000000;" vertex="1" parent="1"><mxGeometry x="409.7085546630123" y="731.8000000000001" width="86.05061740993979" height="72.4" as="geometry"/></mxCell><mxCell id="111" value="action" style="rounded=1;whiteSpace=wrap;html=1;fillColor=#fff2cc;strokeColor=#d6b656;movable=1;resizable=1;rotatable=1;deletable=1;editable=1;connectable=1;container=0;labelBackgroundColor=none;fontSize=18;fontColor=#000000;" vertex="1" parent="1"><mxGeometry x="508.0512444418526" y="731.8000000000001" width="86.05061740993979" height="72.4" as="geometry"/></mxCell><mxCell id="112" value="action" style="rounded=1;whiteSpace=wrap;html=1;fillColor=#fff2cc;strokeColor=#d6b656;movable=1;resizable=1;rotatable=1;deletable=1;editable=1;connectable=1;container=0;labelBackgroundColor=none;fontSize=18;fontColor=#000000;" vertex="1" parent="1"><mxGeometry x="610.1206978846238" y="731.8000000000001" width="86.05061740993979" height="72.4" as="geometry"/></mxCell><mxCell id="113" value="&lt;font style=&quot;font-size: 18px;&quot;&gt;datebase&lt;/font&gt;" style="rounded=1;whiteSpace=wrap;html=1;fillColor=#CCFFE6;movable=1;resizable=1;rotatable=1;deletable=1;editable=1;connectable=1;container=0;labelBackgroundColor=none;fontSize=18;fontColor=#000000;" vertex="1" parent="1"><mxGeometry x="855.98" y="345" width="159.81" height="480" as="geometry"/></mxCell><mxCell id="114" style="edgeStyle=orthogonalEdgeStyle;rounded=0;orthogonalLoop=1;jettySize=auto;html=1;exitX=0.5;exitY=1;exitDx=0;exitDy=0;entryX=0.5;entryY=0;entryDx=0;entryDy=0;labelBackgroundColor=none;fontSize=18;fontColor=#000000;" edge="1" parent="1" source="116" target="99"><mxGeometry relative="1" as="geometry"/></mxCell><mxCell id="115" style="edgeStyle=orthogonalEdgeStyle;rounded=1;orthogonalLoop=1;jettySize=auto;html=1;exitX=1;exitY=0.5;exitDx=0;exitDy=0;entryX=0.056;entryY=0.078;entryDx=0;entryDy=0;entryPerimeter=0;labelBackgroundColor=none;fontSize=18;fontColor=#000000;" edge="1" parent="1" source="116" target="92"><mxGeometry relative="1" as="geometry"/></mxCell><mxCell id="116" value="&lt;font style=&quot;font-size: 18px;&quot;&gt;bifrost apiserver&lt;/font&gt;" style="rounded=1;whiteSpace=wrap;html=1;fillColor=#1ba1e2;fontColor=#000000;strokeColor=#006EAF;movable=1;resizable=1;rotatable=1;deletable=1;editable=1;connectable=1;container=0;labelBackgroundColor=none;fontSize=18;" vertex="1" parent="1"><mxGeometry x="21.29" y="345.67" width="697.71" height="72.4" as="geometry"/></mxCell><mxCell id="117" value="&lt;font style=&quot;font-size: 18px;&quot;&gt;dashboard&lt;/font&gt;" style="rounded=1;whiteSpace=wrap;html=1;fillColor=#FFD966;fontColor=#000000;strokeColor=#006EAF;movable=1;resizable=1;rotatable=1;deletable=1;editable=1;connectable=1;container=0;labelBackgroundColor=none;fontSize=18;" vertex="1" parent="1"><mxGeometry x="21.292945344277115" y="225" width="994.4992783520185" height="72.4" as="geometry"/></mxCell><mxCell id="118" value="" style="edgeStyle=orthogonalEdgeStyle;rounded=0;orthogonalLoop=1;jettySize=auto;html=1;movable=1;resizable=1;rotatable=1;deletable=1;editable=1;connectable=1;labelBackgroundColor=none;fontSize=18;fontColor=#000000;" edge="1" parent="1" source="116" target="117"><mxGeometry relative="1" as="geometry"><Array as="points"><mxPoint x="511.7814645809339" y="273.26666666666665"/><mxPoint x="511.7814645809339" y="273.26666666666665"/></Array></mxGeometry></mxCell><mxCell id="119" value="RESTful API" style="edgeLabel;html=1;align=center;verticalAlign=middle;resizable=1;points=[];movable=1;rotatable=1;deletable=1;editable=1;connectable=1;container=0;fontSize=18;labelBackgroundColor=none;fontColor=#000000;" vertex="1" connectable="0" parent="118"><mxGeometry x="0.0647" relative="1" as="geometry"><mxPoint y="11" as="offset"/></mxGeometry></mxCell><mxCell id="120" value="1" style="ellipse;whiteSpace=wrap;html=1;aspect=fixed;fillColor=#FF3333;strokeColor=none;fontColor=#000000;movable=1;resizable=1;rotatable=1;deletable=1;editable=1;connectable=1;container=0;labelBackgroundColor=none;fontSize=18;" vertex="1" parent="1"><mxGeometry x="562.18254049247" y="309.4666666666667" width="23.368798565451293" height="23.368798565451293" as="geometry"/></mxCell><mxCell id="121" value="2" style="ellipse;whiteSpace=wrap;html=1;aspect=fixed;fillColor=#FF3333;strokeColor=none;fontColor=#000000;movable=1;resizable=1;rotatable=1;deletable=1;editable=1;connectable=1;container=0;labelBackgroundColor=none;fontSize=18;" vertex="1" parent="1"><mxGeometry x="562.18254049247" y="424.1" width="23.368798565451293" height="23.368798565451293" as="geometry"/></mxCell><mxCell id="122" value="5" style="ellipse;whiteSpace=wrap;html=1;aspect=fixed;fillColor=#FF3333;strokeColor=none;fontColor=#000000;movable=1;resizable=1;rotatable=1;deletable=1;editable=1;connectable=1;container=0;labelBackgroundColor=none;fontSize=18;" vertex="1" parent="1"><mxGeometry x="542.5138279416267" y="912.8000000000001" width="23.368798565451293" height="23.368798565451293" as="geometry"/></mxCell><mxCell id="123" style="edgeStyle=orthogonalEdgeStyle;rounded=0;orthogonalLoop=1;jettySize=auto;html=1;exitX=0.5;exitY=1;exitDx=0;exitDy=0;entryX=0.5;entryY=0;entryDx=0;entryDy=0;labelBackgroundColor=none;fontSize=18;fontColor=#000000;" edge="1" parent="1" source="125" target="96"><mxGeometry relative="1" as="geometry"/></mxCell><mxCell id="124" style="edgeStyle=none;rounded=0;orthogonalLoop=1;jettySize=auto;html=1;exitX=1;exitY=0.5;exitDx=0;exitDy=0;entryX=-0.005;entryY=0.764;entryDx=0;entryDy=0;entryPerimeter=0;labelBackgroundColor=none;strokeWidth=2;fontSize=25;fontColor=#000000;endArrow=classic;endFill=1;" edge="1" parent="1" source="125" target="135"><mxGeometry relative="1" as="geometry"/></mxCell><mxCell id="125" value="container manager" style="rounded=1;whiteSpace=wrap;html=1;fillColor=#00CC66;fontColor=#000000;strokeColor=#006EAF;movable=1;resizable=1;rotatable=1;deletable=1;editable=1;connectable=1;container=0;labelBackgroundColor=none;fontSize=18;" vertex="1" parent="1"><mxGeometry x="29.28" y="852.47" width="979.72" height="60.33" as="geometry"/></mxCell><mxCell id="126" style="edgeStyle=orthogonalEdgeStyle;rounded=0;orthogonalLoop=1;jettySize=auto;html=1;startArrow=classic;startFill=1;movable=1;resizable=1;rotatable=1;deletable=1;editable=1;connectable=1;labelBackgroundColor=none;fontSize=18;fontColor=#000000;" edge="1" parent="1" source="92" target="113"><mxGeometry relative="1" as="geometry"/></mxCell><mxCell id="127" value="4" style="ellipse;whiteSpace=wrap;html=1;aspect=fixed;fillColor=#FF3333;strokeColor=none;fontColor=#000000;movable=1;resizable=1;rotatable=1;deletable=1;editable=1;connectable=1;container=0;labelBackgroundColor=none;fontSize=18;" vertex="1" parent="1"><mxGeometry x="542.5138279416267" y="828.3333333333334" width="23.368798565451293" height="23.368798565451293" as="geometry"/></mxCell><mxCell id="128" value="3" style="ellipse;whiteSpace=wrap;html=1;aspect=fixed;fillColor=#FF3333;strokeColor=none;fontColor=#000000;movable=1;resizable=1;rotatable=1;deletable=1;editable=1;connectable=1;container=0;labelBackgroundColor=none;fontSize=18;" vertex="1" parent="1"><mxGeometry x="390.08130567259053" y="653.3666666666668" width="23.368798565451293" height="23.368798565451293" as="geometry"/></mxCell><mxCell id="129" value="&lt;font style=&quot;font-size: 18px;&quot;&gt;workflow manager&lt;/font&gt;" style="text;html=1;strokeColor=none;fillColor=none;align=center;verticalAlign=middle;whiteSpace=wrap;rounded=0;movable=1;resizable=1;rotatable=1;deletable=1;editable=1;connectable=1;container=0;labelBackgroundColor=none;fontSize=18;fontColor=#000000;" vertex="1" parent="1"><mxGeometry x="49.56730161969881" y="466.33333333333337" width="167.18405668216872" height="36.2" as="geometry"/></mxCell><mxCell id="130" value="&lt;font style=&quot;font-size: 18px;&quot;&gt;workflow&lt;/font&gt;" style="rounded=1;whiteSpace=wrap;html=1;fillColor=#FFB366;strokeColor=#d6b656;movable=1;resizable=1;rotatable=1;deletable=1;editable=1;connectable=1;container=0;labelBackgroundColor=none;fontSize=18;fontColor=#000000;" vertex="1" parent="1"><mxGeometry x="401.1449564824399" y="526.6666666666667" width="295.0306882626507" height="108.60000000000001" as="geometry"/></mxCell><mxCell id="131" value="docker" style="text;html=1;strokeColor=none;fillColor=none;align=center;verticalAlign=middle;whiteSpace=wrap;rounded=0;movable=1;resizable=1;rotatable=1;deletable=1;editable=1;connectable=1;container=0;labelBackgroundColor=none;fontSize=18;fontColor=#000000;" vertex="1" parent="1"><mxGeometry x="49.56671963611447" y="949.0000000000001" width="73.75767206566267" height="36.2" as="geometry"/></mxCell><mxCell id="132" value="action actuator" style="text;html=1;strokeColor=none;fillColor=none;align=center;verticalAlign=middle;whiteSpace=wrap;rounded=0;movable=1;resizable=1;rotatable=1;deletable=1;editable=1;connectable=1;container=0;labelBackgroundColor=none;fontSize=18;fontColor=#000000;" vertex="1" parent="1"><mxGeometry x="45.87883603283134" y="695.6" width="122.92945344277112" height="36.2" as="geometry"/></mxCell><mxCell id="133" value="&lt;font style=&quot;font-size: 22px;&quot;&gt;bifrost&amp;nbsp; container&lt;/font&gt;" style="text;html=1;strokeColor=none;fillColor=none;align=center;verticalAlign=middle;whiteSpace=wrap;rounded=0;labelBackgroundColor=none;fontSize=22;fontColor=#000000;" vertex="1" parent="1"><mxGeometry x="-18.439999999999998" y="170" width="269" height="30" as="geometry"/></mxCell><mxCell id="134" value="&lt;font style=&quot;font-size: 25px;&quot;&gt;local host&lt;/font&gt;" style="text;html=1;strokeColor=none;fillColor=none;align=center;verticalAlign=middle;whiteSpace=wrap;rounded=0;labelBackgroundColor=none;fontSize=22;fontColor=#000000;" vertex="1" parent="1"><mxGeometry x="-52.25" y="60" width="269" height="30" as="geometry"/></mxCell><mxCell id="135" value="" style="rounded=1;whiteSpace=wrap;html=1;labelBackgroundColor=none;fontSize=25;fontColor=#000000;fillColor=#66B2FF;" vertex="1" parent="1"><mxGeometry x="1110" y="150" width="370" height="960" as="geometry"/></mxCell><mxCell id="136" value="docker" style="text;html=1;strokeColor=none;fillColor=none;align=center;verticalAlign=middle;whiteSpace=wrap;rounded=0;labelBackgroundColor=none;fontSize=25;fontColor=#000000;" vertex="1" parent="1"><mxGeometry x="1150" y="190" width="60" height="30" as="geometry"/></mxCell><mxCell id="137" style="rounded=0;orthogonalLoop=1;jettySize=auto;html=1;exitX=0;exitY=0.5;exitDx=0;exitDy=0;entryX=0.5;entryY=0;entryDx=0;entryDy=0;labelBackgroundColor=none;fontSize=25;fontColor=#000000;endArrow=open;endFill=0;dashed=1;strokeWidth=5;dashPattern=1 1;edgeStyle=orthogonalEdgeStyle;curved=1;targetPerimeterSpacing=0;" edge="1" parent="1" source="138" target="90"><mxGeometry relative="1" as="geometry"><Array as="points"><mxPoint x="1130" y="325"/><mxPoint x="1130" y="90"/><mxPoint x="525" y="90"/></Array></mxGeometry></mxCell><mxCell id="138" value="bifrost&amp;nbsp; container" style="rounded=1;whiteSpace=wrap;html=1;fillColor=#dae8fc;strokeColor=#6c8ebf;movable=1;resizable=1;rotatable=1;deletable=1;editable=1;connectable=1;container=0;labelBackgroundColor=none;fontSize=18;fontColor=#000000;" vertex="1" parent="1"><mxGeometry x="1160" y="280" width="270" height="90.53" as="geometry"/></mxCell><mxCell id="139" value="container&amp;nbsp; 0" style="rounded=1;whiteSpace=wrap;html=1;fillColor=#dae8fc;strokeColor=#6c8ebf;movable=1;resizable=1;rotatable=1;deletable=1;editable=1;connectable=1;container=0;labelBackgroundColor=none;fontSize=18;fontColor=#000000;" vertex="1" parent="1"><mxGeometry x="1160" y="430" width="270" height="90.53" as="geometry"/></mxCell><mxCell id="140" value="container&amp;nbsp; 1" style="rounded=1;whiteSpace=wrap;html=1;fillColor=#dae8fc;strokeColor=#6c8ebf;movable=1;resizable=1;rotatable=1;deletable=1;editable=1;connectable=1;container=0;labelBackgroundColor=none;fontSize=18;fontColor=#000000;" vertex="1" parent="1"><mxGeometry x="1160" y="584.74" width="270" height="90.53" as="geometry"/></mxCell><mxCell id="141" value="container&amp;nbsp; 2" style="rounded=1;whiteSpace=wrap;html=1;fillColor=#dae8fc;strokeColor=#6c8ebf;movable=1;resizable=1;rotatable=1;deletable=1;editable=1;connectable=1;container=0;labelBackgroundColor=none;fontSize=18;fontColor=#000000;" vertex="1" parent="1"><mxGeometry x="1160" y="737.8" width="270" height="90.53" as="geometry"/></mxCell><mxCell id="142" value="container&amp;nbsp; N" style="rounded=1;whiteSpace=wrap;html=1;fillColor=#dae8fc;strokeColor=#6c8ebf;movable=1;resizable=1;rotatable=1;deletable=1;editable=1;connectable=1;container=0;labelBackgroundColor=none;fontSize=18;fontColor=#000000;" vertex="1" parent="1"><mxGeometry x="1160" y="894.67" width="270" height="90.53" as="geometry"/></mxCell><mxCell id="143" value="5" style="ellipse;whiteSpace=wrap;html=1;aspect=fixed;fillColor=#FF3333;strokeColor=none;fontColor=#000000;movable=1;resizable=1;rotatable=1;deletable=1;editable=1;connectable=1;container=0;labelBackgroundColor=none;fontSize=18;" vertex="1" parent="1"><mxGeometry x="1050.0038279416267" y="851.7" width="23.368798565451293" height="23.368798565451293" as="geometry"/></mxCell></root></mxGraphModel></diagram></mxfile>